<svg xmlns="http://www.w3.org/2000/svg" viewBox="0 0 128 128"><title>MusicWave2</title><rect x="12.7149" y="29.2603" width="102.7899" height="67.5223" rx="4.6464" fill="#9e9393"/><rect x="12.7149" y="29.2603" width="102.7899" height="64.864" rx="4.6464" fill="#bfb0b0"/><rect x="23.1711" y="34.0453" width="3.5445" height="54.2305"/><rect x="40.7163" y="34.0453" width="3.5445" height="54.2305"/><rect x="60.0337" y="34.0453" width="3.5445" height="54.2305"/><rect x="79.8828" y="34.0453" width="3.5445" height="54.2305"/><rect x="100.618" y="34.0453" width="3.5445" height="54.2305"/><rect x="55.4259" y="48.9321" width="12.7601" height="7.9751" rx="1.9302" fill="#4c4343"/><rect x="55.4259" y="48.046" width="12.7601" height="7.7979" rx="1.9302" fill="#665a5a"/><rect x="75.2749" y="61.515" width="12.7601" height="7.9751" rx="1.9302" fill="#4c4343"/><rect x="75.2749" y="60.6289" width="12.7601" height="7.7979" rx="1.8724" fill="#665a5a"/><rect x="96.0101" y="40.071" width="12.7601" height="7.9751" rx="1.9302" fill="#4c4343"/><rect x="96.0101" y="39.1848" width="12.7601" height="7.7979" rx="1.8878" fill="#665a5a"/><rect x="36.1085" y="76.2246" width="12.7601" height="7.9751" rx="1.9302" fill="#4c4343"/><rect x="36.1085" y="75.3385" width="12.7601" height="7.7979" rx="1.8955" fill="#665a5a"/><rect x="18.5633" y="65.2367" width="12.7601" height="7.9751" rx="1.9302" fill="#4c4343"/><rect x="18.5633" y="64.5279" width="12.7601" height="7.7979" rx="1.8647" fill="#665a5a"/></svg>