<svg xmlns="http://www.w3.org/2000/svg" width="1.4212in" height="0.9336in" viewBox="0 0 102.3257 67.2174"><title>musicwave</title><rect width="102.3257" height="67.2174" rx="4.6254" fill="#9e9393"/><rect width="102.3257" height="64.571" rx="4.6254" fill="#bfb0b0"/><rect x="10.409" y="4.7634" width="3.5285" height="53.9856"/><rect x="27.8749" y="4.7634" width="3.5285" height="53.9856"/><rect x="47.1051" y="4.7634" width="3.5285" height="53.9856"/><rect x="66.8645" y="4.7634" width="3.5285" height="53.9856"/><rect x="87.5061" y="4.7634" width="3.5285" height="53.9856"/><rect x="42.5181" y="19.583" width="12.7025" height="7.9391" rx="1.9215" fill="#4c4343"/><rect x="42.5181" y="18.7009" width="12.7025" height="7.7626" rx="1.9215" fill="#665a5a"/><rect x="62.2775" y="32.1091" width="12.7025" height="7.9391" rx="1.9215" fill="#4c4343"/><path d="M64.1415,31.227h8.9746A1.8639,1.8639,0,0,1,74.98,33.0909v4.0347a1.864,1.864,0,0,1-1.864,1.864H64.1415a1.8639,1.8639,0,0,1-1.8639-1.8639V33.0909A1.864,1.864,0,0,1,64.1415,31.227Z" fill="#665a5a"/><rect x="82.9191" y="10.7618" width="12.7025" height="7.9391" rx="1.9215" fill="#4c4343"/><rect x="82.9191" y="9.8797" width="12.7025" height="7.7626" rx="1.8793" fill="#665a5a"/><rect x="23.2879" y="46.7522" width="12.7025" height="7.9391" rx="1.9215" fill="#4c4343"/><rect x="23.2879" y="45.8701" width="12.7025" height="7.7626" rx="1.887" fill="#665a5a"/><rect x="5.822" y="35.814" width="12.7025" height="7.9391" rx="1.9215" fill="#4c4343"/><rect x="5.822" y="35.1083" width="12.7025" height="7.7626" rx="1.8563" fill="#665a5a"/></svg>