<svg xmlns="http://www.w3.org/2000/svg" viewBox="0 0 128 128"><title>MusicWaveFinal</title><path d="M17.1122,14.87h93.7743c2.6076,0,4.6135,3.1333,4.6135,6.8635v86.8382c0,3.8794-2.1062,6.8635-4.6135,6.8635H17.1122c-2.6077,0-4.6135-3.1334-4.6135-6.8635V21.7331C12.3984,17.8537,14.5045,14.87,17.1122,14.87Z" fill="#9e9393"/><path d="M17.1122,14.87h93.7743c2.6076,0,4.6135,3.1333,4.6135,6.8635v82.9588c0,3.8794-2.1062,6.8635-4.6135,6.8635H17.1122c-2.6077,0-4.6135-3.1333-4.6135-6.8635V21.7331C12.3984,17.8537,14.5045,14.87,17.1122,14.87Z" fill="#bfb0b0"/><rect x="23.2" y="19.9565" width="3.5" height="86.4783"/><rect x="40.7" y="19.9565" width="3.5" height="86.4783"/><rect x="60" y="19.9565" width="3.5" height="86.4783"/><rect x="79.9" y="19.9565" width="3.5" height="86.4783"/><rect x="100.6" y="19.9565" width="3.5" height="86.4783"/><path d="M57.3038,44.1581h8.9a2.118,2.118,0,0,1,1.9,2.2792v5.0383a2.11,2.11,0,0,1-1.9,2.2792h-8.9a2.118,2.118,0,0,1-1.9-2.2792V46.5573A2.0978,2.0978,0,0,1,57.3038,44.1581Z" fill="#4c4343"/><path d="M57.4,42.8985h8.9a2.1181,2.1181,0,0,1,1.9,2.2792v4.6784a2.11,2.11,0,0,1-1.9,2.2792H57.4a2.118,2.118,0,0,1-1.9-2.2792V45.2977A2.0978,2.0978,0,0,1,57.4,42.8985Z" fill="#665a5a"/><path d="M77.1,67.934H86a2.1181,2.1181,0,0,1,1.9,2.2792v4.9183A2.11,2.11,0,0,1,86,77.4108H77.1a2.1181,2.1181,0,0,1-1.9-2.2793V70.2132A2.1181,2.1181,0,0,1,77.1,67.934Z" fill="#4c4343"/><path d="M77.05,66.5238h9a2.11,2.11,0,0,1,1.9,2.2792v4.9183a2.1181,2.1181,0,0,1-1.9,2.2793h-9a2.11,2.11,0,0,1-1.9-2.2793V68.803C75.25,67.6034,76.05,66.5238,77.05,66.5238Z" fill="#665a5a"/><path d="M97.9,33.5417h8.9a2.1181,2.1181,0,0,1,1.9,2.2793v4.9183a2.11,2.11,0,0,1-1.9,2.2792H97.9A2.1181,2.1181,0,0,1,96,40.7393V35.821A2.11,2.11,0,0,1,97.9,33.5417Z" fill="#4c4343"/><path d="M97.85,32.4021h9a2.11,2.11,0,0,1,1.9,2.2792V39.48a2.118,2.118,0,0,1-1.9,2.2792h-9a2.11,2.11,0,0,1-1.9-2.2792V34.6813A2.11,2.11,0,0,1,97.85,32.4021Z" fill="#665a5a"/><path d="M38,83.5233h8.9a2.118,2.118,0,0,1,1.9,2.2792v4.9183A2.11,2.11,0,0,1,46.9,93H38a2.118,2.118,0,0,1-1.9-2.2792V85.8025A2.1914,2.1914,0,0,1,38,83.5233Z" fill="#4c4343"/><path d="M38,82.7334h9a2.11,2.11,0,0,1,1.9,2.2793V89.811A2.118,2.118,0,0,1,47,92.09H38a2.11,2.11,0,0,1-1.9-2.2792V85.0127A2.1915,2.1915,0,0,1,38,82.7334Z" fill="#665a5a"/><path d="M20.5,58.4573h8.9a2.118,2.118,0,0,1,1.9,2.2792v4.9183a2.11,2.11,0,0,1-1.9,2.2792H20.5a2.118,2.118,0,0,1-1.9-2.2792V60.7365A2.118,2.118,0,0,1,20.5,58.4573Z" fill="#4c4343"/><path d="M20.45,57.0471h9a2.11,2.11,0,0,1,1.9,2.2792v4.9183a2.118,2.118,0,0,1-1.9,2.2792h-9a2.11,2.11,0,0,1-1.9-2.2792V59.3263C18.65,58.1267,19.45,57.0471,20.45,57.0471Z" fill="#665a5a"/></svg>